<?xml version="1.0" encoding="UTF-8"?>
<svg width="20px" height="17px" viewBox="0 0 20 17" version="1.1" xmlns="http://www.w3.org/2000/svg" xmlns:xlink="http://www.w3.org/1999/xlink">
    <!-- Generator: Sketch 56.3 (81716) - https://sketch.com -->
    <title>icon-twitter</title>
    <desc>Created with Sketch.</desc>
    <g id="00-Home" stroke="none" stroke-width="1" fill="none" fill-rule="evenodd">
        <g id="00-01-01-Home" transform="translate(-231.000000, -7246.000000)" fill="#FFFFFF">
            <g id="Footer" transform="translate(2.000000, 7040.000000)">
                <g id="Social/Twitter" transform="translate(228.000000, 204.000000)">
                    <path d="M20.5128205,3.99396246 C19.7967922,4.3234714 19.0258608,4.54630478 18.2171834,4.64586864 C19.043018,4.13382597 19.6766916,3.32190646 19.9752274,2.35471474 C19.2020083,2.82882833 18.3475783,3.17374596 17.4348138,3.35865026 C16.7073474,2.55384245 15.6676193,2.05128205 14.5169413,2.05128205 C12.3105217,2.05128205 10.520451,3.90625145 10.520451,6.19384949 C10.520451,6.51861729 10.5547654,6.83390283 10.6233943,7.13733552 C7.30061119,6.96428406 4.35528706,5.31673936 2.38220585,2.80749322 C2.03791747,3.42147031 1.84118126,4.13382597 1.84118126,4.8924077 C1.84118126,6.32897186 2.54691524,7.59722569 3.61981389,8.34039874 C2.9655516,8.32024891 2.34789139,8.13178876 1.80801062,7.82361493 L1.80801062,7.87458214 C1.80801062,9.88245317 3.18630793,11.5572594 5.01641224,11.9365503 C4.68127439,12.0337436 4.3278355,12.0823402 3.96295845,12.0823402 C3.70560003,12.0823402 3.45396069,12.0574492 3.21032805,12.0088526 C3.71932581,13.6540267 5.19484741,14.8523488 6.94488466,14.8843515 C5.57688169,15.9961478 3.85200837,16.6587216 1.9795829,16.6587216 C1.65702701,16.6587216 1.33790257,16.639757 1.02564103,16.6018279 C2.79512313,17.775259 4.89745546,18.4615385 7.15420284,18.4615385 C14.5089346,18.4615385 18.529445,12.1499014 18.529445,6.67507477 C18.529445,6.49491161 18.5260135,6.31474845 18.5191506,6.13814114 C19.3003764,5.55379615 19.9786588,4.82484651 20.5128205,3.99396246" id="Fill"></path>
                </g>
            </g>
        </g>
    </g>
</svg>